<svg xmlns="http://www.w3.org/2000/svg" xmlns:xlink="http://www.w3.org/1999/xlink" width="60" height="60" viewBox="0 0 60 60">
  <defs>
    <clipPath id="clip-upload">
      <rect width="60" height="60"/>
    </clipPath>
  </defs>
  <g id="upload" clip-path="url(#clip-upload)">
    <path id="Path_107" data-name="Path 107" d="M2755.586-2075.167a1.588,1.588,0,0,1-1.588-1.586v-26.2l-5.7,5.7a1.552,1.552,0,0,1-1.116.471,1.6,1.6,0,0,1-1.117-.471,1.576,1.576,0,0,1-.464-1.122,1.576,1.576,0,0,1,.464-1.122l8.4-8.4a1.552,1.552,0,0,1,1.117-.47,1.615,1.615,0,0,1,1.116.47l8.4,8.4a1.589,1.589,0,0,1,0,2.245,1.576,1.576,0,0,1-1.121.467,1.546,1.546,0,0,1-1.112-.467l-5.7-5.7v26.2A1.588,1.588,0,0,1,2755.586-2075.167Zm-6.5-10.413h-10.2a12.221,12.221,0,0,1-8.463-4.255,13.5,13.5,0,0,1-3.42-8.921,12.62,12.62,0,0,1,5.195-10.167,9.921,9.921,0,0,1-.188-1.881,9.073,9.073,0,0,1,9.063-9.062,9.51,9.51,0,0,1,1.739.165,16.543,16.543,0,0,1,5.372-5.654,16.474,16.474,0,0,1,8.979-2.644,16.492,16.492,0,0,1,11.166,4.337,16.405,16.405,0,0,1,5.16,9.462,14.25,14.25,0,0,1,7.642,5.176,14.848,14.848,0,0,1,3.031,8.906,14.65,14.65,0,0,1-3.832,9.873,14.072,14.072,0,0,1-9.427,4.655h-8.839a1.589,1.589,0,0,1-1.587-1.588,1.588,1.588,0,0,1,1.587-1.587h8.663a11.456,11.456,0,0,0,10.262-11.354,11.369,11.369,0,0,0-9.18-11.238,1.586,1.586,0,0,1-1.317-1.41,13.313,13.313,0,0,0-13.316-12.083,13.435,13.435,0,0,0-12.107,7.675,1.6,1.6,0,0,1-1.439.908,1.6,1.6,0,0,1-.548-.1,5.764,5.764,0,0,0-2.01-.353,5.9,5.9,0,0,0-5.889,5.889,5.72,5.72,0,0,0,.352,2.021,1.6,1.6,0,0,1-.693,1.928,9.428,9.428,0,0,0-4.667,8.111c0,5.135,4.053,9.72,8.851,10.013h10.061a1.588,1.588,0,0,1,1.587,1.587A1.589,1.589,0,0,1,2749.085-2085.58Z" transform="translate(-2724.814 2132.415)"/>
  </g>
</svg>
